HIERARCHY
ROOT SpineBase
{
  OFFSET 0.000000 0.000000 0.000000
  CHANNELS 6 Xposition Yposition Zposition Zrotation Xrotation Yrotation
  JOINT SpineMid
  {
    OFFSET 0.000000 29.088808 -0.000000
    CHANNELS 3 Zrotation Xrotation Yrotation
    JOINT SpineShoulder
    {
      OFFSET -0.014412 21.670242 -0.700619
      CHANNELS 3 Zrotation Xrotation Yrotation
      JOINT Neck
      {
        OFFSET 0.007661 7.198689 -0.537356
        CHANNELS 3 Zrotation Xrotation Yrotation
        JOINT Head
        {
          OFFSET -2.236690 13.863006 -0.532532
          CHANNELS 3 Zrotation Xrotation Yrotation
          End Site
          {
            OFFSET 0 0 0
          }
        }
      }
      JOINT ShoulderLeft
      {
        OFFSET -16.550191 -2.595788 5.371539
        CHANNELS 3 Zrotation Xrotation Yrotation
        JOINT ElbowLeft
        {
          OFFSET -0.517630 -29.889592 8.557486
          CHANNELS 3 Zrotation Xrotation Yrotation
          JOINT WristLeft
          {
            OFFSET -3.529730 -22.124253 4.945543
            CHANNELS 3 Zrotation Xrotation Yrotation
            JOINT HandLeft
            {
              OFFSET -0.640306 -5.333776 2.101391
              CHANNELS 3 Zrotation Xrotation Yrotation
              JOINT HandTipLeft
              {
                OFFSET 0.071186 -8.814464 5.369558
                CHANNELS 3 Zrotation Xrotation Yrotation
                End Site
                {
                  OFFSET 0 0 0
                }
              }
              JOINT ThumbLeft
              {
                OFFSET 2.854202 0.378681 -3.082879
                CHANNELS 3 Zrotation Xrotation Yrotation
                End Site
                {
                  OFFSET 0 0 0
                }
              }
            }
          }
        }
      }
      JOINT ShoulderRight
      {
        OFFSET 14.929688 -3.327820 -7.164379
        CHANNELS 3 Zrotation Xrotation Yrotation
        JOINT ElbowRight
        {
          OFFSET 5.353465 -26.829257 -1.437043
          CHANNELS 3 Zrotation Xrotation Yrotation
          JOINT WristRight
          {
            OFFSET -0.378703 -22.706642 -6.086377
            CHANNELS 3 Zrotation Xrotation Yrotation
            JOINT HandRight
            {
              OFFSET -1.191063 -6.119953 -0.617165
              CHANNELS 3 Zrotation Xrotation Yrotation
              JOINT HandTipRight
              {
                OFFSET -0.258486 -7.591040 -1.090853
                CHANNELS 3 Zrotation Xrotation Yrotation
                End Site
                {
                  OFFSET 0 0 0
                }
              }
              JOINT ThumbRight
              {
                OFFSET -3.436673 0.476566 -0.393209
                CHANNELS 3 Zrotation Xrotation Yrotation
                End Site
                {
                  OFFSET 0 0 0
                }
              }
            }
          }
        }
      }
    }
  }
  JOINT HipLeft
  {
    OFFSET -6.804377 0.159456 -1.316580
    CHANNELS 3 Zrotation Xrotation Yrotation
    JOINT KneeLeft
    {
      OFFSET -0.755258 -33.627133 8.941575
      CHANNELS 3 Zrotation Xrotation Yrotation
      JOINT AnkleLeft
      {
        OFFSET 3.276915 -34.580144 8.377926
        CHANNELS 3 Zrotation Xrotation Yrotation
        JOINT FootLeft
        {
          OFFSET -3.319631 -8.112909 -2.408502
          CHANNELS 3 Zrotation Xrotation Yrotation
          End Site
          {
            OFFSET 0 0 0
          }
        }
      }
    }
  }
  JOINT HipRight
  {
    OFFSET 7.001769 1.808724 -5.179831
    CHANNELS 3 Zrotation Xrotation Yrotation
    JOINT KneeRight
    {
      OFFSET 7.129802 -29.877746 -0.951336
      CHANNELS 3 Zrotation Xrotation Yrotation
      JOINT AnkleRight
      {
        OFFSET 4.476485 -39.792759 11.363808
        CHANNELS 3 Zrotation Xrotation Yrotation
        JOINT FootRight
        {
          OFFSET -3.803351 -3.861032 -12.819246
          CHANNELS 3 Zrotation Xrotation Yrotation
          End Site
          {
            OFFSET 0 0 0
          }
        }
      }
    }
  }
}
MOTION
Frames: 14
Frame Time: 0.033333
-10.321279 77.558090 340.772591 -0.000000 -0.000000 15.632742 0.000000 0.000000 -15.632742 -0.000000 0.000000 0.000000 -0.000000 0.000000 0.000000 0.000000 0.000000 0.000000 -0.000000 0.000000 0.000000 -0.000000 0.000000 0.000000 -0.000000 0.000000 0.000000 -0.000000 0.000000 0.000000 0.000000 0.000000 0.000000 0.000000 0.000000 0.000000 -0.000000 0.000000 0.000000 -0.000000 0.000000 0.000000 -0.000000 0.000000 0.000000 -0.000000 0.000000 0.000000 0.000000 0.000000 0.000000 0.000000 0.000000 0.000000 0.000000 0.000000 -15.632742 -0.000000 0.000000 0.000000 -0.000000 0.000000 0.000000 0.000000 0.000000 0.000000 0.000000 0.000000 -15.632742 -0.000000 0.000000 0.000000 -0.000000 0.000000 0.000000 0.000000 0.000000 0.000000
-10.333029 77.565820 340.776951 -0.021704 0.020398 15.646091 0.015399 -0.025496 -15.646084 -0.000000 0.000000 0.000000 -0.000000 0.000000 0.000000 0.000000 0.000000 0.000000 -0.000000 0.000000 0.000000 -0.000000 0.000000 0.000000 -0.000000 0.000000 0.000000 -0.000000 0.000000 0.000000 0.000000 0.000000 0.000000 0.000000 0.000000 0.000000 -0.000000 0.000000 0.000000 -0.000000 0.000000 0.000000 -0.000000 0.000000 0.000000 -0.000000 0.000000 0.000000 0.000000 0.000000 0.000000 0.000000 0.000000 0.000000 0.015399 -0.025496 -15.646084 -0.000000 0.000000 0.000000 0.453071 0.660556 -0.407366 0.000000 0.000000 0.000000 0.015399 -0.025496 -15.646084 -0.000000 0.000000 0.000000 -0.000000 0.000000 0.000000 0.000000 0.000000 0.000000
-10.341984 77.572494 340.782409 -0.039822 0.039564 15.657735 0.027667 -0.048843 -15.657709 -0.000000 0.000000 0.000000 -0.000000 0.000000 0.000000 0.000000 0.000000 0.000000 -0.000000 0.000000 0.000000 -0.000000 0.000000 0.000000 -0.000000 0.000000 0.000000 -0.000000 0.000000 0.000000 0.000000 0.000000 0.000000 0.000000 0.000000 0.000000 -0.000000 0.000000 0.000000 -0.000000 0.000000 0.000000 -0.000000 0.000000 0.000000 -0.722237 -1.337752 0.141118 0.000000 0.000000 0.000000 0.000000 0.000000 0.000000 0.027667 -0.048843 -15.657709 -0.000000 0.000000 0.000000 0.563281 2.833990 -1.333830 0.000000 0.000000 0.000000 0.027667 -0.048843 -15.657709 -0.000000 0.000000 0.000000 -0.000000 0.000000 0.000000 0.000000 0.000000 0.000000
-10.348143 77.578113 340.788968 -0.054349 0.057493 15.667659 0.036803 -0.070034 -15.667609 -0.000000 0.000000 0.000000 -0.000000 0.000000 0.000000 0.000000 0.000000 0.000000 -0.000000 0.000000 0.000000 -0.000000 0.000000 0.000000 -0.000000 0.000000 0.000000 -0.000000 0.000000 0.000000 0.000000 0.000000 0.000000 0.000000 0.000000 0.000000 -0.000000 0.000000 0.000000 -0.000000 0.000000 0.000000 -0.000000 0.000000 0.000000 -0.823462 -2.045682 0.173702 0.000000 0.000000 0.000000 0.000000 0.000000 0.000000 0.036803 -0.070034 -15.667609 -0.000000 0.000000 0.000000 0.396569 6.525805 -2.769945 0.000000 0.000000 0.000000 0.036803 -0.070034 -15.667609 -0.000000 0.000000 0.000000 -0.000000 0.000000 0.000000 0.000000 0.000000 0.000000
-10.351507 77.582677 340.796625 -0.065280 0.074182 15.675850 0.042808 -0.089061 -15.675774 -0.000000 0.000000 0.000000 -0.000000 0.000000 0.000000 0.000000 0.000000 0.000000 -0.000000 0.000000 0.000000 -0.000000 0.000000 0.000000 -0.000000 0.000000 0.000000 -0.000000 0.000000 0.000000 0.000000 0.000000 0.000000 0.000000 0.000000 0.000000 -0.000000 0.000000 0.000000 -0.000000 0.000000 0.000000 -0.000000 0.000000 0.000000 -0.740965 -2.774301 0.183623 0.000000 0.000000 0.000000 0.000000 0.000000 0.000000 0.042808 -0.089061 -15.675774 -0.000000 0.000000 0.000000 0.055359 11.700611 -4.682268 0.000000 0.000000 0.000000 0.042808 -0.089061 -15.675774 -0.000000 0.000000 0.000000 -0.000000 0.000000 0.000000 0.000000 0.000000 0.000000
-10.352075 77.586185 340.805382 -0.072611 0.089629 15.682299 0.045681 -0.105920 -15.682200 -0.000000 0.000000 0.000000 -0.000000 0.000000 0.000000 0.000000 0.000000 0.000000 -0.000000 0.000000 0.000000 -0.000000 0.000000 0.000000 -0.000000 0.000000 0.000000 -0.000000 0.000000 0.000000 0.000000 0.000000 0.000000 0.000000 0.000000 0.000000 -0.000000 0.000000 0.000000 -0.000000 0.000000 0.000000 -0.000000 0.000000 0.000000 -0.469436 -3.519215 0.173653 0.000000 0.000000 0.000000 0.000000 0.000000 0.000000 0.045681 -0.105920 -15.682200 -0.000000 0.000000 0.000000 -0.323882 18.196931 -7.010412 0.000000 0.000000 0.000000 0.045681 -0.105920 -15.682200 -0.000000 0.000000 0.000000 -0.000000 0.000000 0.000000 0.000000 0.000000 0.000000
-10.349056 77.586365 340.815889 -0.075438 0.105016 15.649557 0.044314 -0.121473 -15.649441 -0.000000 0.000000 0.000000 -0.000000 0.000000 0.000000 0.000000 0.000000 0.000000 -0.000000 0.000000 0.000000 -0.000000 0.000000 0.000000 -0.000000 0.000000 0.000000 -0.000000 0.000000 0.000000 0.000000 0.000000 0.000000 0.000000 0.000000 0.000000 -0.000000 0.000000 0.000000 -0.000000 0.000000 0.000000 1.178585 -0.363004 -0.044580 -0.884925 -4.519595 0.188276 0.000000 0.000000 0.000000 0.000000 0.000000 0.000000 0.044314 -0.121473 -15.649441 -0.000000 0.000000 0.000000 -0.234170 27.633303 -10.589746 0.000000 0.000000 0.000000 0.044314 -0.121473 -15.649441 -0.000000 0.000000 0.000000 -0.000000 0.000000 0.000000 0.000000 0.000000 0.000000
-10.343590 77.587503 340.826343 -0.073732 0.123612 15.633618 0.037693 -0.138909 -15.633493 -0.000000 0.000000 0.000000 -0.000000 0.000000 0.000000 0.000000 0.000000 0.000000 -0.000000 0.000000 0.000000 -0.000000 0.000000 0.000000 -0.000000 0.000000 0.000000 -0.000000 0.000000 0.000000 0.000000 0.000000 0.000000 0.000000 0.000000 0.000000 -0.000000 0.000000 0.000000 -0.000000 0.000000 0.000000 1.430659 -0.276317 -0.087289 0.450730 -5.179515 0.091504 0.000000 0.000000 0.000000 0.000000 0.000000 0.000000 0.037693 -0.138909 -15.633493 -0.000000 0.000000 0.000000 -0.291662 39.846196 -15.068419 0.000000 0.000000 0.000000 0.037693 -0.138909 -15.633493 -0.000000 0.000000 0.000000 -0.000000 0.000000 0.000000 0.000000 0.000000 0.000000
-10.337194 77.589760 340.839145 -0.071429 0.136370 15.652424 0.031987 -0.150584 -15.652297 -0.000000 0.000000 0.000000 -0.000000 0.000000 0.000000 0.000000 0.000000 0.000000 -0.000000 0.000000 0.000000 -0.000000 0.000000 0.000000 -0.000000 0.000000 0.000000 -0.000000 0.000000 0.000000 0.000000 0.000000 0.000000 0.000000 0.000000 0.000000 -0.000000 0.000000 0.000000 -0.000000 0.000000 0.000000 1.593856 -0.203112 -0.118730 0.419724 -5.364654 0.117157 0.000000 0.000000 0.000000 0.000000 0.000000 0.000000 0.031987 -0.150584 -15.652297 -0.000000 0.000000 0.000000 0.333461 45.444927 -17.556599 0.000000 0.000000 0.000000 0.031987 -0.150584 -15.652297 -0.000000 0.000000 0.000000 -0.000000 0.000000 0.000000 0.000000 0.000000 0.000000
-10.328213 77.591758 340.850897 -0.068984 0.143005 15.710564 0.027684 -0.156341 -15.710440 -0.000000 0.000000 0.000000 -0.000000 0.000000 0.000000 0.000000 0.000000 0.000000 -0.000000 0.000000 0.000000 -0.000000 0.000000 0.000000 -0.000000 0.000000 0.000000 -0.000000 0.000000 0.000000 0.000000 0.000000 0.000000 0.000000 0.000000 0.000000 -0.000000 0.000000 0.000000 -0.000000 0.000000 0.000000 1.640385 -0.110011 -0.142862 0.948259 -5.500662 0.088722 0.000000 0.000000 0.000000 0.000000 0.000000 0.000000 0.027684 -0.156341 -15.710440 -0.000000 0.000000 0.000000 0.667984 46.710752 -18.260698 0.000000 0.000000 0.000000 0.027684 -0.156341 -15.710440 -0.000000 0.000000 0.000000 -0.000000 0.000000 0.000000 0.000000 0.000000 0.000000
-10.318980 77.591589 340.860987 -0.066170 0.139473 15.764659 0.025788 -0.152204 -15.764545 -0.000000 0.000000 0.000000 -0.000000 0.000000 0.000000 0.000000 0.000000 0.000000 -0.000000 0.000000 0.000000 -0.000000 0.000000 0.000000 -0.272351 0.743954 -0.195287 0.274908 -0.743013 0.198838 0.000000 0.000000 0.000000 0.000000 0.000000 0.000000 -0.000000 0.000000 0.000000 -0.000000 0.000000 0.000000 1.800817 0.741725 -0.338445 0.576168 -7.376661 0.374801 0.000000 0.000000 0.000000 0.000000 0.000000 0.000000 0.025788 -0.152204 -15.764545 -0.000000 0.000000 0.000000 1.177588 43.876370 -17.532552 0.000000 0.000000 0.000000 0.025788 -0.152204 -15.764545 -0.000000 0.000000 0.000000 -0.000000 0.000000 0.000000 0.000000 0.000000 0.000000
-10.312794 77.590437 340.870727 -0.067395 0.141607 15.799874 0.026292 -0.154607 -15.799755 -0.000000 0.000000 0.000000 -0.813088 0.066301 -0.020090 0.000000 0.000000 0.000000 -0.000000 0.000000 0.000000 -0.000000 0.000000 0.000000 -0.289159 0.781025 -0.206204 0.291995 -0.779969 0.210162 0.000000 0.000000 0.000000 0.000000 0.000000 0.000000 -0.000000 0.000000 0.000000 -0.000000 0.000000 0.000000 1.911635 1.305752 -0.469701 -0.113559 -7.212792 0.510877 0.000000 0.000000 0.000000 0.000000 0.000000 0.000000 0.026292 -0.154607 -15.799755 -0.000000 0.000000 0.000000 0.927555 36.622066 -14.623488 0.000000 0.000000 0.000000 0.026292 -0.154607 -15.799755 -0.000000 0.000000 0.000000 -0.000000 0.000000 0.000000 0.000000 0.000000 0.000000
-10.308626 77.587090 340.876653 -0.081917 0.146713 15.825911 0.038802 -0.163491 -15.825751 -0.000000 0.000000 0.000000 -0.000000 0.000000 0.000000 0.000000 0.000000 0.000000 -0.000000 0.000000 0.000000 -0.000000 0.000000 0.000000 -0.000000 0.000000 0.000000 -0.000000 0.000000 0.000000 0.000000 0.000000 0.000000 0.000000 0.000000 0.000000 -0.000000 0.000000 0.000000 -0.000000 0.000000 0.000000 2.012346 1.668664 -0.558125 -1.119282 -5.963113 0.583841 0.000000 0.000000 0.000000 0.000000 0.000000 0.000000 0.038802 -0.163491 -15.825751 -0.000000 0.000000 0.000000 0.668598 32.403457 -12.877529 0.000000 0.000000 0.000000 -1.031724 -1.483599 -16.193240 0.660207 1.566096 0.343077 -0.000000 0.000000 0.000000 0.000000 0.000000 0.000000
-10.307480 77.581460 340.884171 -0.100693 0.150832 15.836573 0.055710 -0.172586 -15.836356 -0.000000 0.000000 0.000000 -0.000000 0.000000 0.000000 0.000000 0.000000 0.000000 -0.011954 0.856881 -0.018212 0.012228 -0.856877 0.018393 -0.279764 0.789538 -0.203570 0.282594 -0.788530 0.207442 0.000000 0.000000 0.000000 0.000000 0.000000 0.000000 0.253404 0.803001 0.144765 -0.255457 -0.802350 -0.148330 1.933234 1.937439 -0.605717 -2.262474 -5.994118 0.709902 0.000000 0.000000 0.000000 0.000000 0.000000 0.000000 0.055710 -0.172586 -15.836356 -0.000000 0.000000 0.000000 1.625966 17.837631 -7.767067 0.000000 0.000000 0.000000 -1.542617 -1.928800 -16.340677 1.040518 2.134409 0.455623 -0.000000 0.000000 0.000000 0.000000 0.000000 0.000000
